<svg class="svg-icon" style="width: 1em; height: 1em;vertical-align: middle;fill: currentColor;overflow: hidden;" viewBox="0 0 1024 1024" version="1.1" xmlns="http://www.w3.org/2000/svg"><path d="M329.037 357.945h329.395c15.247 0 27.629-12.382 27.629-27.629s-12.382-27.629-27.63-27.629H329.038c-15.247 0-27.629 12.382-27.629 27.629s12.28 27.629 27.629 27.629zM329.037 475.622h278.64c15.247 0 27.629-12.381 27.629-27.628s-12.382-27.63-27.629-27.63h-278.64c-15.247 0-27.629 12.383-27.629 27.63s12.28 27.628 27.629 27.628zM658.432 588.286c15.247 0 27.629-12.382 27.629-27.629s-12.382-27.629-27.63-27.629H329.038c-15.247 0-27.629 12.382-27.629 27.63s12.382 27.628 27.629 27.628h329.395z"  /><path d="M811.822 127.399h-610.49c-15.248 0-27.63 12.382-27.63 27.628v713.127c0 15.247 12.382 27.629 27.63 27.629h423.74c6.652 0 12.997-2.354 18.01-6.754l186.75-160.349c6.037-5.218 9.619-12.893 9.619-20.875V155.027c0-15.246-12.382-27.628-27.629-27.628z m-581.839 57.304H783.17v480.84h-171.4c-15.247 0-27.628 12.382-27.628 27.63v146.329H229.983v-654.8zM639.399 819.24v-97.314h112.868L639.399 819.24z"  /></svg>