<svg class="svg-icon" style="width: 1em; height: 1em;vertical-align: middle;fill: currentColor;overflow: hidden;" viewBox="0 0 1024 1024" version="1.1" xmlns="http://www.w3.org/2000/svg"><path d="M153.6 443.733333c-6.826667 0-10.24-3.413333-13.653333-6.826666-13.653333-20.48-139.946667-204.8-139.946667-283.306667C0 68.266667 68.266667 0 153.6 0S307.2 68.266667 307.2 153.6c0 78.506667-126.293333 262.826667-139.946667 283.306667-3.413333 3.413333-6.826667 6.826667-13.653333 6.826666z m0-409.6C88.746667 34.133333 34.133333 88.746667 34.133333 153.6 34.133333 204.8 109.226667 331.093333 153.6 395.946667 197.973333 331.093333 273.066667 204.8 273.066667 153.6 273.066667 88.746667 218.453333 34.133333 153.6 34.133333zM836.266667 1024c-6.826667 0-10.24-3.413333-13.653334-10.24-6.826667-13.653333-174.08-307.2-174.08-409.6 0-109.226667 85.333333-194.56 187.733334-194.56s187.733333 88.746667 187.733333 194.56c0 102.4-167.253333 395.946667-174.08 409.6-3.413333 6.826667-6.826667 10.24-13.653333 10.24z m0-580.266667C750.933333 443.733333 682.666667 515.413333 682.666667 604.16c0 71.68 98.986667 269.653333 153.6 365.226667 54.613333-98.986667 153.6-296.96 153.6-365.226667 0-88.746667-68.266667-160.426667-153.6-160.426667zM768 1024c-23.893333 0-47.786667 0-71.68-3.413333-10.24 0-17.066667-10.24-13.653333-20.48s10.24-17.066667 20.48-13.653334c20.48 3.413333 40.96 3.413333 64.853333 3.413334 10.24 0 17.066667 6.826667 17.066667 17.066666s-6.826667 17.066667-17.066667 17.066667z m-133.12-23.893333h-6.826667c-23.893333-10.24-44.373333-23.893333-61.44-37.546667-6.826667-6.826667-6.826667-17.066667 0-23.893333 6.826667-6.826667 17.066667-6.826667 23.893334 0 13.653333 13.653333 30.72 23.893333 51.2 34.133333 10.24 3.413333 13.653333 13.653333 10.24 23.893333-3.413333 0-10.24 3.413333-17.066667 3.413334z m-98.986667-88.746667c-6.826667 0-10.24-3.413333-13.653333-10.24-10.24-20.48-20.48-40.96-27.306667-68.266667-3.413333-10.24 3.413333-17.066667 10.24-20.48 10.24-3.413333 17.066667 3.413333 20.48 10.24 6.826667 23.893333 13.653333 44.373333 23.893334 61.44 3.413333 6.826667 0 17.066667-6.826667 23.893334 0 3.413333-3.413333 3.413333-6.826667 3.413333z m-37.546666-129.706667c-6.826667 0-17.066667-6.826667-17.066667-13.653333-3.413333-23.893333-6.826667-44.373333-10.24-68.266667 0-10.24 6.826667-17.066667 13.653333-20.48 10.24 0 17.066667 6.826667 20.48 13.653334 3.413333 23.893333 6.826667 44.373333 10.24 68.266666 0 10.24-6.826667 20.48-17.066666 20.48z m-17.066667-133.12c-6.826667 0-17.066667-6.826667-17.066667-13.653333-3.413333-27.306667-6.826667-47.786667-13.653333-64.853333-3.413333-10.24 3.413333-17.066667 13.653333-20.48 10.24-3.413333 17.066667 3.413333 20.48 13.653333 6.826667 20.48 10.24 40.96 13.653334 68.266667 0 6.826667-6.826667 13.653333-17.066667 17.066666 0-3.413333 0 0 0 0z m-40.96-133.12c-6.826667 0-13.653333-3.413333-13.653333-10.24-10.24-20.48-23.893333-34.133333-37.546667-47.786666-6.826667-6.826667-6.826667-17.066667 0-23.893334 6.826667-6.826667 17.066667-6.826667 23.893333 0 17.066667 17.066667 34.133333 34.133333 44.373334 58.026667 3.413333 6.826667 0 17.066667-6.826667 23.893333h-10.24zM341.333333 430.08h-6.826666c-17.066667-6.826667-37.546667-13.653333-61.44-13.653333-10.24 0-17.066667-10.24-13.653334-20.48 0-10.24 10.24-17.066667 20.48-13.653334 23.893333 3.413333 47.786667 10.24 68.266667 17.066667 10.24 3.413333 13.653333 13.653333 10.24 20.48-3.413333 3.413333-10.24 10.24-17.066667 10.24z" fill="" /><path d="M153.6 204.8C126.293333 204.8 102.4 180.906667 102.4 153.6S126.293333 102.4 153.6 102.4 204.8 126.293333 204.8 153.6 180.906667 204.8 153.6 204.8z m0-68.266667c-10.24 0-17.066667 6.826667-17.066667 17.066667s6.826667 17.066667 17.066667 17.066667 17.066667-6.826667 17.066667-17.066667-6.826667-17.066667-17.066667-17.066667zM836.266667 682.666667c-47.786667 0-85.333333-37.546667-85.333334-85.333334s37.546667-85.333333 85.333334-85.333333 85.333333 37.546667 85.333333 85.333333-37.546667 85.333333-85.333333 85.333334z m0-136.533334c-27.306667 0-51.2 23.893333-51.2 51.2s23.893333 51.2 51.2 51.2 51.2-23.893333 51.2-51.2-23.893333-51.2-51.2-51.2z" fill="" /></svg>