<svg class="svg-icon" style="width: 1.041015625em;height: 1em;vertical-align: middle;fill: currentColor;overflow: hidden;" viewBox="0 0 1066 1024" version="1.1" xmlns="http://www.w3.org/2000/svg"><path d="M665.088 847.573333l2.688-6.186666L907.306667 194.56l1.28-5.034667 1.706666-9.898666a62.72 62.72 0 0 0-16.64-50.090667l-4.522666-4.522667c-17.365333-17.28-42.24-21.674667-64.213334-16.298666l-6.869333 2.048-646.4 237.226666-4.693333 1.962667c-25.6 11.946667-41.130667 38.698667-38.698667 66.944 0.213333 13.525333 7.253333 30.165333 19.413333 42.666667l12.842667 13.141333 19.072 4.608 283.178667 75.136 75.733333 282.837333 1.365333 4.565334c5.461333 15.488 16.213333 28.586667 30.336 36.906666l15.018667 8.832h18.858667l4.949333-0.213333a68.48 68.48 0 0 0 56.064-37.845333z m175.018667-676.693333a7.338667 7.338667 0 0 1 3.968 0.085333l1.066666 0.597334 1.024 0.981333c0.512 0.426667 0.469333 1.28 0.341334 1.877333l-0.341334 1.024-238.378666 643.712a4.48 4.48 0 0 1-2.176 2.090667l-1.536 0.384h-1.408a5.376 5.376 0 0 1-1.834667-1.706667l-0.512-1.152-85.333333-318.634666-321.536-85.290667a5.034667 5.034667 0 0 1-1.450667-3.413333 3.498667 3.498667 0 0 1 0.853333-2.56l1.28-0.938667 645.973334-237.013333z"  /></svg>