<svg class="svg-icon" style="width: 1em; height: 1em;vertical-align: middle;fill: currentColor;overflow: hidden;" viewBox="0 0 1024 1024" version="1.1" xmlns="http://www.w3.org/2000/svg"><path d="M857.140907 158.772338h-85.538134v-48.513138c0-9.871929-8.001422-17.873351-17.87392-17.873351h-129.318115C613.378844 40.148764 566.897778 1.31072 512.001707 1.31072c-54.897209 0-101.377138 38.838044-112.4096 91.07456H270.273991c-9.871929 0-17.87392 8.001422-17.87392 17.873351v48.513138H166.859093c-9.871929 0-17.87392 8.001991-17.87392 17.87392v828.167964c0 9.871929 8.001991 17.87392 17.87392 17.87392h690.281814c9.872498 0 17.874489-8.001991 17.874489-17.87392V176.646258c0-9.871929-8.001991-17.87392-17.874489-17.87392zM288.14848 128.13312h127.021511c9.453227 0 17.268053-7.358578 17.841493-16.791893 2.523591-41.653476 37.218987-74.282098 78.990223-74.282098 41.770667 0 76.466062 32.628622 78.989653 74.282098 0.574009 9.433316 8.388836 16.791893 17.842062 16.791893h127.021511V237.078756H288.14848V128.13312z m551.118507 858.806613H184.734151V194.520178h67.66592v60.432498c0 9.872498 8.001991 17.87392 17.87392 17.87392h483.454862c9.872498 0 17.87392-8.001991 17.87392-17.87392V194.520178h67.664214v792.419555z"  /><path d="M377.53344 389.130809L303.99488 462.672213l-32.883484-32.885191c-6.981404-6.977422-18.297742-6.977422-25.279716 0-6.979698 6.981404-6.979698 18.297742 0 25.279716l45.523058 45.523626c3.490702 3.488427 8.064569 5.234347 12.640142 5.234347 4.575573 0 9.14944-1.74592 12.640142-5.234347l86.178702-86.178702c6.979698-6.981973 6.979698-18.298311 0-25.280284-6.981404-6.977422-18.297742-6.977422-25.280284-0.000569zM469.331058 426.986951c-9.872498 0-17.87392 8.001991-17.87392 17.87392 0 9.872498 8.001991 17.87392 17.87392 17.87392h296.200533c9.872498 0 17.87392-8.001991 17.87392-17.87392s-8.001422-17.87392-17.87392-17.87392H469.331058zM377.53344 591.601778l-73.53856 73.541404-32.883484-32.88576c-6.981404-6.977422-18.297742-6.977422-25.279716 0-6.979698 6.981404-6.979698 18.297742 0 25.280285l45.523058 45.523057c3.490702 3.488996 8.064569 5.233778 12.640142 5.233778 4.575573 0 9.14944-1.744782 12.640142-5.233778l86.178702-86.178702c6.979698-6.981404 6.979698-18.297173 0-25.280284-6.981404-6.977422-18.297742-6.977422-25.280284 0zM765.531591 629.456782H469.331058c-9.872498 0-17.87392 8.001991-17.87392 17.874489s8.001991 17.874489 17.87392 17.874489h296.200533c9.872498 0 17.87392-8.001991 17.87392-17.874489s-8.001422-17.874489-17.87392-17.874489zM377.53344 794.072178l-73.53856 73.541404-32.883484-32.886329c-6.981404-6.976853-18.297742-6.976853-25.279716 0-6.979698 6.982542-6.979698 18.29888 0 25.280854l45.523058 45.523057c3.490702 3.488427 8.064569 5.233209 12.640142 5.233209 4.575573 0 9.14944-1.744782 12.640142-5.233209l86.178702-86.178702c6.979698-6.982542 6.979698-18.29888 0-25.280284-6.981404-6.976853-18.297742-6.976853-25.280284 0zM765.531591 831.927751H469.331058c-9.872498 0-17.87392 8.001991-17.87392 17.874489s8.001991 17.873351 17.87392 17.873351h296.200533c9.872498 0 17.87392-8.000853 17.87392-17.873351s-8.001422-17.874489-17.87392-17.874489z"  /></svg>