<svg version="1.1" id="Layer_1" xmlns="http://www.w3.org/2000/svg" xmlns:xlink="http://www.w3.org/1999/xlink" x="0px" y="0px"
	 width="100%" viewBox="0 0 1024 1024" enable-background="new 0 0 1024 1024" xml:space="preserve">
<path fill="#000000" opacity="1.000000" stroke="none" 
	d="
M553.002441,687.648926 
	C586.966553,688.307617 620.376770,689.983093 653.766418,692.358826 
	C677.668152,694.059509 701.515991,696.298767 725.331055,698.822632 
	C744.983826,700.905396 764.556458,703.770813 784.140869,706.462219 
	C792.840088,707.657715 795.727966,705.973083 797.483154,697.514587 
	C803.863647,666.765747 809.941162,635.959717 814.676514,604.904480 
	C815.020447,602.649231 815.577942,600.426514 816.119690,597.780701 
	C822.903198,601.346313 822.972168,607.780701 823.115051,613.437256 
	C823.413147,625.241882 823.165466,637.077515 823.091919,648.892456 
	C823.049866,655.631470 821.776062,662.390503 822.996094,669.200684 
	C823.568420,672.395752 823.587402,675.938477 821.983276,679.007751 
	C820.698792,681.465454 823.059326,683.084778 823.005249,685.124573 
	C822.706177,696.418396 824.531860,707.798218 822.356079,718.997498 
	C819.232361,735.076660 806.082947,746.811218 789.826782,749.282593 
	C776.622375,751.289978 763.636169,749.609619 750.607971,747.975647 
	C747.649902,747.604614 744.734375,746.885376 741.774414,746.539551 
	C738.110718,746.111389 735.966492,747.393433 735.243835,751.498779 
	C731.713196,771.557190 717.836609,783.006165 697.355164,783.358948 
	C682.480469,783.615173 667.849121,781.200684 653.124512,779.765625 
	C644.023804,778.878601 634.914307,777.975342 625.786865,777.490723 
	C601.364441,776.193970 576.962341,774.702576 552.496765,773.969727 
	C518.503601,772.951416 484.542511,773.372253 450.606445,774.507446 
	C420.204651,775.524414 389.840393,777.828979 359.559265,781.052979 
	C348.346649,782.246704 337.131775,784.324768 325.752228,783.089966 
	C314.634674,781.883545 304.814941,778.065002 297.237885,769.384521 
	C293.187775,764.744629 292.104492,759.040466 290.853577,753.371338 
	C289.316589,746.405640 288.064087,745.367004 280.998260,746.548462 
	C267.657104,748.779175 254.192322,749.897461 240.733994,749.175110 
	C227.773712,748.479492 215.842133,744.796570 208.122009,732.943420 
	C204.890930,727.982483 203.727585,722.479309 203.753769,716.843750 
	C203.810165,704.699585 204.125610,692.522095 204.027115,680.409973 
	C203.847473,658.318481 203.890930,636.221069 203.625351,614.128235 
	C203.553787,608.175232 204.717087,602.609070 209.551590,597.714233 
	C212.510223,607.523865 213.495834,617.172241 215.291443,626.649170 
	C219.870346,650.815796 224.345490,675.002502 229.029968,699.148560 
	C230.229126,705.329529 233.074234,706.887390 239.403854,706.140869 
	C269.951538,702.537964 300.366943,697.924683 331.064453,695.436096 
	C354.444336,693.540833 377.794861,691.658569 401.230042,690.368103 
	C441.819550,688.133057 482.402710,686.793518 523.041931,686.960327 
	C532.862976,687.000671 542.682556,687.405701 553.002441,687.648926 
M556.183899,724.541077 
	C558.613037,724.711914 558.645874,726.974487 559.376892,728.450562 
	C563.447327,736.668884 568.174561,744.511169 572.765259,752.435547 
	C575.545776,757.235229 580.014282,755.518738 583.963501,755.426575 
	C586.244934,755.373413 586.641357,753.324097 586.693726,751.349365 
	C587.042480,738.199890 587.358765,725.049316 587.801514,711.902954 
	C587.937805,707.856506 585.539734,706.733276 582.217163,706.433594 
	C578.331360,706.083252 577.378540,708.564697 577.227295,711.741455 
	C576.926453,718.056763 576.680054,724.374878 576.334351,730.687622 
	C576.223816,732.705627 576.877197,734.885559 575.710693,736.769165 
	C574.174622,736.390503 573.944580,735.353088 573.475464,734.500977 
	C568.738220,725.896973 563.929138,717.331726 559.271851,708.684814 
	C556.608887,703.740479 552.063416,705.355164 548.159668,705.496338 
	C544.312683,705.635254 544.820923,709.353638 544.753418,711.719238 
	C544.387817,724.535828 544.341003,737.361450 544.159302,750.183533 
	C544.103027,754.158691 546.611694,754.620422 549.792542,754.718445 
	C553.205627,754.823547 554.648376,753.368408 554.767639,750.049927 
	C555.066467,741.734009 555.475159,733.422058 556.183899,724.541077 
M647.098145,712.745605 
	C646.115906,710.408936 643.851990,710.020874 641.819397,709.469116 
	C635.599487,707.780579 629.336426,707.784119 623.075989,709.347229 
	C611.546997,712.225769 604.548889,720.732056 603.644775,732.982727 
	C602.906494,742.984924 608.663635,752.179382 618.438782,756.280090 
	C623.101440,758.236023 628.079834,758.841797 633.110352,758.718018 
	C650.110779,758.299805 648.438171,757.409119 648.664917,743.574524 
	C648.873596,730.843506 648.168823,730.230652 635.185425,731.040161 
	C633.035217,731.174255 630.693665,731.060669 630.398682,734.162231 
	C630.123230,737.058594 631.354431,738.427734 634.262146,738.764282 
	C639.174377,739.332825 636.838318,743.279053 637.277466,745.846985 
	C637.753784,748.632690 636.066162,749.638367 633.511475,749.881531 
	C625.001099,750.691772 617.616760,745.376831 616.698425,737.690430 
	C615.391174,726.749756 620.106934,719.272461 629.402405,717.856689 
	C632.853088,717.331177 636.499756,716.960510 639.819092,718.049561 
	C644.491333,719.582458 646.351318,717.603088 647.098145,712.745605 
M458.660339,731.983826 
	C460.807129,737.747925 463.452362,743.385315 464.958282,749.312256 
	C466.417145,755.054016 470.239166,754.547241 474.503448,754.647095 
	C479.037231,754.753174 481.448883,752.983582 482.843292,748.602600 
	C486.726135,736.403442 491.024292,724.337036 495.039886,712.179016 
	C495.833038,709.777710 497.248749,706.864502 493.512177,705.437195 
	C489.411682,703.870667 485.142761,705.381226 484.044006,708.924744 
	C481.976837,715.591614 480.168549,722.338135 478.187683,729.032349 
	C477.091888,732.735535 476.715393,736.715454 474.422882,740.127441 
	C472.395813,738.819763 472.345947,736.836914 471.780670,735.175842 
	C468.834869,726.519958 465.813385,717.884216 463.151398,709.139954 
	C461.927673,705.120178 458.639648,704.594971 453.550049,705.791504 
	C449.315094,706.787170 450.360077,710.126831 451.465057,713.073914 
	C453.741882,719.146484 456.043854,725.209534 458.660339,731.983826 
M385.711151,740.514648 
	C385.287537,732.053711 384.810181,723.594971 384.459778,715.131042 
	C384.237030,709.752075 380.742126,710.021118 376.800781,710.059937 
	C372.404266,710.103271 372.030792,712.566345 372.226257,715.919800 
	C372.970184,728.681702 373.689178,741.445129 374.354950,754.211243 
	C374.515625,757.292480 375.960541,758.867310 379.049286,758.664978 
	C386.836914,758.155029 394.617767,757.541138 402.405823,757.038940 
	C405.591766,756.833557 406.059021,754.841614 406.007538,752.226013 
	C405.950897,749.350159 404.702942,747.901550 401.743347,748.035645 
	C398.753571,748.171143 395.761383,748.296204 392.769226,748.327942 
	C385.971497,748.400024 385.971252,748.375610 385.711151,740.514648 
M512.363831,745.251038 
	C512.366821,746.249878 512.398193,747.249512 512.368042,748.247375 
	C512.234131,752.676208 514.723022,753.902588 518.718567,753.900757 
	C522.844727,753.898926 524.797852,752.419128 524.760864,748.029785 
	C524.655823,735.546021 524.750366,723.059326 524.898315,710.575378 
	C524.942139,706.879395 523.750122,705.118530 519.730164,705.155090 
	C513.633362,705.210510 512.452087,706.020386 512.394043,712.342590 
	C512.296204,722.996094 512.368896,733.651123 512.363831,745.251038 
M434.662537,733.496399 
	C434.717377,726.342834 434.336365,719.212158 433.927521,712.069336 
	C433.652496,707.264587 431.114990,706.931641 427.342957,706.930420 
	C423.167542,706.929138 421.867249,708.650146 422.052979,712.689575 
	C422.625519,725.142944 423.041016,737.606628 423.276367,750.070862 
	C423.359650,754.480774 425.339691,755.860718 429.463989,755.777710 
	C433.521912,755.696045 435.858490,754.317749 435.588593,749.926880 
	C435.272339,744.781616 434.979767,739.635010 434.662537,733.496399 
z"/>
<path fill="#000000" opacity="1.000000" stroke="none" 
	d="
M783.182251,304.214844 
	C766.352539,318.799622 747.794983,329.684479 726.877563,336.337250 
	C711.319702,341.285370 695.486816,345.056274 679.151306,346.384216 
	C678.169006,346.464020 677.188416,346.730011 676.243408,347.025543 
	C675.842346,347.151001 675.535095,347.576538 674.306335,348.591949 
	C696.700989,351.850037 717.996643,356.378113 739.307983,361.244659 
	C739.787537,364.256653 737.661316,365.711884 736.267822,367.381805 
	C724.178345,381.869965 707.930054,388.421417 689.866699,391.310608 
	C683.634766,392.307434 677.380371,393.327667 671.018677,393.171051 
	C668.951233,393.120178 667.270081,392.755096 665.835693,390.889221 
	C655.401917,377.317230 640.596863,371.120514 624.583557,367.613831 
	C617.168823,365.990112 609.640564,364.300171 601.910767,364.323120 
	C590.368652,364.357391 579.035156,366.139252 567.806702,368.511993 
	C563.282043,369.468109 561.725891,368.222412 561.750671,363.705688 
	C561.861267,343.548920 561.805786,323.391296 561.842651,303.234039 
	C561.847229,300.730408 561.695190,298.284058 561.233826,295.798676 
	C560.021484,289.268280 561.408691,287.325867 567.905823,287.791443 
	C591.519287,289.483551 615.185547,287.775055 638.774170,288.905548 
	C685.339233,291.137207 726.499207,276.324890 764.446594,250.658203 
	C779.752014,240.305969 794.137756,228.645004 809.734375,218.703339 
	C830.763977,205.298645 853.703918,196.654083 878.036926,191.629318 
	C901.734436,186.735809 925.020508,189.189484 947.989624,196.110550 
	C948.459778,196.252197 948.922058,196.489014 949.319641,196.776108 
	C949.554688,196.945862 949.655212,197.301895 950.081787,198.023315 
	C942.369080,199.099899 934.860596,200.135071 927.356018,201.197830 
	C901.578430,204.848312 878.827332,215.724594 857.358337,229.983856 
	C838.612488,242.434448 824.303101,259.283417 809.993469,276.197418 
	C801.704041,285.995514 793.091492,295.479431 783.182251,304.214844 
z"/>
<path fill="#000000" opacity="1.000000" stroke="none" 
	d="
M461.301941,349.879852 
	C461.082306,352.920715 461.852417,355.613739 460.344574,358.488190 
	C448.568268,351.376831 435.574219,347.465393 423.844086,340.926208 
	C417.488159,337.383026 411.736450,336.983002 405.022186,340.326599 
	C395.950989,344.843903 386.456573,348.494202 377.471893,353.272308 
	C373.815796,355.216614 371.432465,357.433441 372.028320,361.698059 
	C373.248199,370.428406 370.742126,376.501648 361.320343,378.660645 
	C357.460785,379.545074 356.169312,382.783112 356.083313,386.759949 
	C355.947723,393.029449 355.259491,393.218903 348.852325,392.758667 
	C331.088867,391.482635 314.406494,387.065063 299.787231,376.449371 
	C294.543762,372.641876 289.739380,368.378143 286.507935,361.643768 
	C307.384583,356.151489 327.926117,351.928314 350.140717,348.333984 
	C341.826355,344.895844 334.336975,344.874847 327.180969,343.407471 
	C297.564178,337.334076 269.994812,326.759674 246.609818,306.972687 
	C230.253662,293.133057 216.773712,276.585541 202.814011,260.459381 
	C176.217468,229.735229 142.987350,210.076462 103.063324,201.933990 
	C95.877289,200.468399 88.616745,199.608566 81.323418,198.953598 
	C79.686539,198.806595 78.008354,198.771530 75.889748,197.319885 
	C82.229927,194.394592 88.570480,193.310211 94.727432,191.976410 
	C118.348320,186.859360 141.530762,189.233917 164.731766,195.570602 
	C197.812714,204.605713 225.197113,223.525391 252.058517,243.664352 
	C272.841797,259.246368 295.363098,271.724640 320.146088,279.730865 
	C339.728577,286.057098 359.813904,289.380066 380.508179,288.997894 
	C400.663177,288.625610 420.828125,288.818542 440.987732,288.646423 
	C445.963867,288.603943 450.935211,287.898163 455.910492,287.874664 
	C461.881287,287.846497 462.676300,288.735077 462.274628,294.552277 
	C461.013214,312.820648 461.443939,331.114532 461.301941,349.879852 
z"/>
<path fill="#000000" opacity="1.000000" stroke="none" 
	d="
M700.013794,473.999329 
	C699.606506,475.188538 699.199219,476.377777 698.594116,478.144562 
	C695.444763,472.874176 697.219482,466.032318 690.704041,461.506592 
	C690.789185,467.870056 695.093933,471.910583 693.993713,477.594330 
	C690.724365,474.290405 690.974365,469.362396 687.583130,466.490479 
	C686.244629,469.164581 689.491882,470.595978 688.488464,473.151245 
	C685.001282,472.529694 685.329102,467.819031 681.812134,466.889557 
	C681.129761,471.222870 681.416870,474.903595 683.953125,478.660553 
	C694.078552,493.658722 698.536194,510.271973 697.183411,528.373291 
	C697.059692,530.028625 696.674194,531.668335 696.608459,533.323181 
	C696.458557,537.096252 694.475098,537.870239 691.292480,536.685852 
	C681.620667,533.086670 671.972900,529.422729 662.292786,525.846313 
	C659.515808,524.820251 658.450623,522.932068 658.719299,520.065125 
	C659.419434,512.594482 659.836670,505.021027 664.496216,498.664581 
	C667.304749,494.833252 666.596069,492.001465 662.489685,489.670898 
	C660.486084,492.956207 660.994690,496.729126 660.542603,500.260803 
	C660.061157,504.022949 654.498962,503.196289 655.225220,507.940491 
	C652.438232,505.986816 653.277649,502.637054 650.173828,500.970337 
	C650.888794,507.439880 651.541870,513.349060 652.335205,520.527588 
	C645.592041,517.527649 639.782043,515.189880 634.196594,512.402100 
	C624.956604,507.790314 615.911987,502.787018 606.672852,498.173370 
	C604.055542,496.866333 603.589172,494.995972 603.699585,492.513733 
	C604.558899,473.203674 609.025818,454.992340 620.227112,438.889252 
	C623.648254,433.971039 627.193054,429.122406 630.962708,424.470001 
	C632.955688,422.010315 632.811584,419.515076 630.919800,417.846802 
	C628.896484,416.062622 627.406006,418.440552 626.160522,419.949951 
	C625.228455,421.079651 624.605957,422.498291 622.917297,423.255371 
	C621.838928,420.498627 625.340576,419.355255 624.754150,416.650818 
	C620.418884,420.039856 619.324402,425.692261 614.886414,429.634552 
	C614.410461,425.285980 617.103821,422.957367 618.512695,420.173553 
	C619.259888,418.697266 620.287109,417.355042 621.254150,415.999512 
	C622.735229,413.923615 622.394531,412.188690 620.177795,411.049561 
	C617.916138,409.887390 617.146729,411.874451 616.567200,413.317078 
	C614.457825,418.567902 612.520752,423.888214 610.539368,429.190033 
	C610.040833,430.523956 610.203491,432.239594 608.148193,432.877625 
	C607.223755,429.356720 608.846191,426.324585 609.798828,423.262787 
	C610.835938,419.929321 612.307068,416.733398 613.473022,413.436493 
	C614.123779,411.596191 614.269836,409.270966 611.964294,408.921173 
	C609.420654,408.535309 607.345032,407.371765 605.049866,406.553741 
	C602.225525,405.547150 601.628601,408.022400 601.512939,410.027344 
	C601.282837,414.015411 601.305115,418.021576 601.325684,422.019714 
	C601.358093,428.313782 601.278870,434.593201 600.073853,441.044739 
	C598.191040,440.352966 598.711060,438.884460 598.676941,437.767517 
	C598.432739,429.776917 598.264648,421.784058 598.025513,413.793274 
	C597.977295,412.181274 598.351624,410.009918 596.330933,409.538361 
	C594.280884,409.059998 591.874512,409.185150 590.068054,410.377441 
	C588.365967,411.500824 589.379028,413.423279 589.764526,414.994995 
	C591.287781,421.205414 593.677063,427.237854 593.598938,433.988068 
	C590.847046,429.877869 583.837219,433.024963 583.052307,426.820984 
	C580.756104,427.414368 581.901123,429.018982 581.097290,430.239655 
	C575.715271,426.453522 573.741882,419.293365 567.446411,416.325287 
	C565.408020,420.064484 569.504883,421.312286 569.479126,423.888031 
	C568.780212,425.460815 566.841858,423.796021 565.492432,426.150391 
	C584.302246,442.171448 593.669250,462.841614 592.120117,488.832367 
	C584.429932,485.375366 577.749817,481.120422 570.992188,477.030273 
	C567.431580,474.875214 564.028992,472.460693 560.493347,470.262512 
	C557.281616,468.265625 554.915405,466.116028 554.507324,461.784790 
	C554.037231,456.796661 548.456970,453.131012 541.940125,453.438416 
	C533.058838,453.857391 528.797607,447.136993 522.066162,442.466827 
	C526.397766,440.224915 529.556396,439.804138 532.417969,442.712585 
	C533.736572,444.052795 534.914307,444.880219 536.726807,443.748688 
	C543.053406,439.799133 550.100952,437.889709 557.320923,436.440857 
	C558.611572,436.181885 559.933289,435.744843 560.399536,433.800812 
	C559.270386,431.208557 556.529968,430.090302 554.122192,428.836090 
	C548.218567,425.760864 542.082886,423.126465 536.218018,419.983459 
	C533.329224,418.435333 531.911804,420.681335 529.980652,421.608521 
	C527.834045,422.639130 525.777344,423.052277 524.026184,421.156555 
	C522.310303,419.299103 522.597534,417.291443 524.036072,415.296326 
	C526.477722,415.593323 527.554565,419.600586 530.552246,417.412506 
	C530.787476,416.213470 529.860352,415.583527 529.326172,414.778870 
	C524.894043,408.102570 525.310913,401.731781 530.769653,395.727753 
	C537.286316,388.560028 545.280090,383.512909 554.290466,380.117615 
	C568.435303,374.787445 583.346741,371.792847 598.201111,371.463135 
	C617.282349,371.039642 635.949707,374.999756 652.395203,385.824921 
	C654.464905,387.187256 656.398315,388.845428 658.122192,390.629883 
	C668.356262,401.223328 666.807678,412.765228 654.226990,420.518402 
	C646.017151,425.577942 637.335449,429.953094 630.618835,437.160217 
	C626.221130,441.879120 626.163391,442.482056 631.418274,445.980133 
	C634.296631,447.896179 634.588867,450.037140 631.674377,451.742767 
	C627.761475,454.032684 626.297241,456.941681 627.996765,461.086975 
	C626.456055,462.757660 624.541565,462.882629 622.800781,463.208160 
	C620.044922,463.723511 618.354858,465.323029 617.316528,467.779846 
	C616.740723,469.142334 615.824646,470.594482 617.156555,471.946411 
	C618.422791,473.231628 619.932373,472.730804 621.325562,472.060547 
	C626.157043,469.736084 631.193542,467.912964 636.461609,467.049408 
	C640.712585,466.352570 645.075378,466.360382 649.377563,465.942230 
	C651.015930,465.783020 652.698669,465.519135 654.243103,464.141724 
	C653.774658,461.114807 650.923035,460.441864 648.851135,459.019745 
	C644.703308,456.172668 638.853088,454.470642 639.382507,448.001617 
	C639.897644,441.708954 645.375732,439.702728 650.171326,437.358002 
	C661.353149,431.890747 673.475342,430.334869 685.614136,429.892975 
	C705.910400,429.154083 726.254517,428.884277 746.044739,434.898987 
	C750.842346,436.357086 755.498230,438.123077 759.924011,440.441193 
	C763.881836,442.514221 767.207703,445.171265 767.343140,450.238647 
	C767.476013,455.213165 764.159546,457.715027 760.440125,459.786774 
	C753.301636,463.763092 746.191223,467.759155 739.975342,473.139587 
	C738.842407,474.120178 737.637024,475.031128 736.599731,476.104401 
	C735.474487,477.268585 733.795471,478.417542 734.525330,480.308594 
	C735.288818,482.286957 737.330383,481.818451 738.911743,481.769165 
	C752.023315,481.360840 764.795471,483.121704 777.139282,487.637421 
	C778.846497,488.261963 780.563843,489.014130 782.062561,490.024536 
	C786.630920,493.104431 786.671631,497.833282 781.695618,500.247253 
	C767.017090,507.368164 760.809631,520.021851 757.783081,535.056641 
	C757.133545,538.283142 757.736877,540.725586 759.824341,543.315186 
	C763.247864,547.562439 766.303772,552.123657 769.035339,558.650024 
	C761.711975,556.695068 755.427002,555.048035 749.639160,552.169800 
	C747.647278,551.179260 747.899475,547.981750 747.844360,545.671204 
	C747.581482,534.645752 749.956055,524.206116 755.026489,514.391846 
	C758.126404,508.391815 755.908691,504.529938 749.174438,504.203644 
	C747.487488,505.651917 748.665466,508.104309 747.099182,510.056305 
	C744.616760,507.718506 748.601379,503.913086 745.001587,502.046448 
	C742.889832,504.319611 745.986755,507.498779 743.921936,509.879364 
	C741.880981,508.529083 742.501099,506.116455 741.048584,504.286469 
	C740.208496,505.717407 741.631042,507.316101 740.498718,508.525116 
	C738.170959,507.812103 739.182251,504.379028 736.326294,503.777039 
	C735.646606,506.239960 737.742615,508.266266 737.751587,510.818695 
	C735.181458,509.643646 734.737854,506.590332 732.107910,505.683136 
	C730.853210,508.999054 731.453003,511.700714 733.390259,514.514709 
	C739.601318,523.536560 740.803894,533.946533 741.155640,544.518250 
	C741.285461,548.419678 739.821106,550.077942 735.635132,548.449097 
	C728.806641,545.791931 721.781616,543.695068 714.605591,542.158325 
	C711.913086,541.581726 710.263000,540.296143 709.810730,537.292236 
	C707.644775,522.905823 708.453430,508.859833 713.362671,495.030029 
	C716.208984,487.011597 720.881470,480.241791 726.005432,473.639557 
	C727.187439,472.116608 729.346436,470.941376 727.612671,468.090668 
	C726.058899,465.536041 724.232910,464.063843 721.392456,464.090881 
	C718.879517,464.114746 716.440308,464.467926 715.353333,467.449463 
	C712.841492,474.339630 711.057251,481.430847 709.284973,488.527618 
	C708.854614,490.250946 708.895935,492.120850 707.356506,493.858093 
	C706.283142,491.565277 706.621277,489.512115 707.138733,487.480682 
	C709.069763,479.899384 711.078857,472.341766 713.830994,465.001678 
	C714.378967,463.540161 715.678589,461.569916 713.491760,460.663452 
	C711.013550,459.636200 710.538269,461.879120 709.989990,463.672028 
	C708.469727,468.642822 708.140808,473.811157 707.382202,478.909546 
	C707.177063,480.288330 707.704041,481.945496 705.377014,483.360168 
	C704.705627,478.249908 705.838196,473.657257 706.286072,469.077972 
	C706.511597,466.772308 707.271179,464.523804 707.652466,462.226715 
	C707.892090,460.782990 707.500122,459.526550 705.745239,459.309021 
	C704.130249,459.108826 703.131775,459.984283 702.887451,461.449280 
	C702.673035,462.734955 702.841309,464.084473 702.841309,465.405792 
	C702.841187,475.357483 702.841248,485.309143 702.841248,496.023285 
	C699.373474,488.751251 701.613281,481.538208 700.151123,473.942261 
	C699.602722,469.555389 700.814575,465.768433 698.232056,461.125153 
	C696.973022,466.570618 699.153931,470.200623 700.013794,473.999329 
M722.739929,458.500153 
	C724.413818,458.411560 725.411926,457.246796 726.354797,456.102173 
	C727.295044,454.960663 728.501648,453.635559 726.709473,452.310089 
	C725.410339,451.349304 723.745239,451.145874 722.633667,452.489655 
	C721.210876,454.209717 719.301514,456.134003 722.739929,458.500153 
M580.081299,419.526733 
	C578.886108,417.628296 578.043640,415.258942 574.469238,415.749420 
	C574.507141,419.947418 576.932983,422.223694 580.032837,424.491791 
	C581.189575,422.681091 580.847534,421.427856 580.081299,419.526733 
M683.922913,456.082977 
	C683.758362,455.443390 683.673950,454.768738 683.412964,454.171234 
	C682.808533,452.787445 682.110840,451.433167 680.308838,451.373749 
	C679.384888,451.343323 678.651917,451.788055 678.461243,452.687561 
	C678.112305,454.333069 679.024597,455.586304 680.117920,456.614288 
	C681.145447,457.580353 681.853394,459.102936 683.597046,459.053680 
	C684.361938,458.345490 684.035889,457.505066 683.922913,456.082977 
M729.989319,460.033936 
	C732.689697,461.599579 734.330078,459.970581 735.401245,457.887146 
	C736.062988,456.600037 735.077209,455.085846 733.749023,454.840149 
	C731.062683,454.343170 730.966797,456.932098 730.075806,458.507294 
	C729.921387,458.780396 729.899414,459.128448 729.989319,460.033936 
z"/>
<path fill="#000000" opacity="1.000000" stroke="none" 
	d="
M362.578430,471.987793 
	C362.608459,445.677887 362.848480,419.861328 362.512634,394.052307 
	C362.436981,388.237366 364.283844,384.974579 369.527527,383.151947 
	C372.016541,382.286804 374.413361,381.156281 377.121521,380.034271 
	C375.425659,374.826233 376.007355,369.683807 375.808533,364.583649 
	C375.707092,361.981445 376.450134,360.231110 378.973938,359.024475 
	C389.482330,354.000275 399.745117,348.457489 410.722015,344.439301 
	C412.767120,343.690643 414.530975,343.726349 416.467651,344.634491 
	C427.019867,349.582428 437.575562,354.524445 448.184479,359.348785 
	C450.949158,360.606049 452.739594,362.404816 452.059357,365.469086 
	C449.689636,376.144012 456.222931,380.225342 464.658020,383.290192 
	C468.106964,384.543365 469.693970,384.122375 469.689728,380.188232 
	C469.664307,356.528137 469.684967,332.867920 469.690186,309.207764 
	C464.880402,303.100616 469.830811,297.198517 470.001160,291.193512 
	C470.106873,287.466217 471.409637,285.465942 475.312744,285.797302 
	C479.504089,286.153168 481.199646,284.191559 481.716187,280.082733 
	C482.180542,276.389252 484.492432,273.020508 483.979126,269.048309 
	C483.905365,268.477753 484.289764,267.734100 484.676849,267.238129 
	C486.120728,265.388000 489.143799,265.622009 489.761200,262.323303 
	C491.601288,252.492325 492.839935,242.647797 491.080902,232.749710 
	C490.373230,228.767700 489.582611,225.245453 493.231018,222.359879 
	C493.604828,222.064240 494.066864,221.557678 494.062103,221.153992 
	C493.985138,214.633118 499.214874,214.782639 503.366547,213.951431 
	C510.815277,212.460068 518.268188,212.869492 525.645935,214.714142 
	C528.067322,215.319565 530.062683,216.239868 530.246338,219.147369 
	C530.334961,220.549774 531.044617,221.696747 532.095581,222.579437 
	C534.665527,224.737930 534.747314,227.645126 533.910522,230.382050 
	C530.518005,241.477524 532.336731,252.314651 535.178040,263.123688 
	C535.458984,264.192688 536.079895,265.727814 536.899597,266.009674 
	C542.253479,267.850739 541.884644,272.470428 542.244690,276.639252 
	C542.670227,281.566010 543.984009,285.440216 549.925049,285.605347 
	C552.378723,285.673523 553.357544,287.223877 553.319946,289.614685 
	C553.260193,293.416199 552.878662,297.272858 555.770996,300.477783 
	C556.561096,301.353271 556.513306,302.868591 555.697144,303.769226 
	C552.401917,307.405334 553.059265,311.875031 553.030701,316.127625 
	C552.907532,334.434998 552.894592,352.743286 552.900513,371.051239 
	C552.901550,374.312256 551.939026,376.545074 548.317810,376.765839 
	C546.167175,375.035767 546.835999,372.699005 546.827148,370.650574 
	C546.744446,351.497864 546.764038,332.344757 546.719299,313.191833 
	C546.703064,306.250092 541.421082,302.970886 534.971191,305.793152 
	C532.959595,306.673370 532.504089,308.274109 532.506714,310.252136 
	C532.509705,312.572479 532.520386,314.905487 532.295471,317.210388 
	C531.973816,320.506622 529.343567,320.992615 526.800293,321.046478 
	C524.065979,321.104431 522.462708,319.667603 522.539734,316.714294 
	C522.609131,314.051880 522.582214,311.387146 522.622131,308.723785 
	C522.656311,306.443329 521.569946,305.383179 519.278381,305.384308 
	C516.925842,305.385468 515.974548,306.617584 515.996704,308.813721 
	C516.018555,310.978882 515.991699,313.148834 516.129456,315.307556 
	C516.375000,319.156311 514.362610,320.748749 510.790436,320.943390 
	C506.990753,321.150482 505.856445,318.982330 505.923187,315.630432 
	C505.966278,313.465912 505.871185,311.298981 505.886810,309.133453 
	C505.903442,306.824097 505.238953,305.290436 502.504181,305.305695 
	C499.807831,305.320740 499.239288,306.794891 499.085785,309.126587 
	C498.439240,318.947296 498.390564,318.944092 496.297516,321.262238 
	C500.820984,325.208099 499.143890,330.309814 498.544617,335.086945 
	C498.288727,337.126556 496.037476,337.765930 494.174103,337.598816 
	C492.174103,337.419434 489.874939,336.683960 489.907623,334.221252 
	C489.961151,330.188202 488.296753,325.919403 491.079803,322.165283 
	C491.709747,321.315552 491.608643,320.668762 490.947388,319.993866 
	C489.193298,318.203735 489.746918,315.928467 489.712372,313.819733 
	C489.575256,305.443970 486.652161,303.292694 478.384125,305.406860 
	C475.695709,306.094269 475.121826,307.940399 475.122833,310.278046 
	C475.125732,316.940491 475.143311,323.602936 475.156891,330.265381 
	C475.243622,372.751434 475.311615,415.237579 475.461884,457.723419 
	C475.471649,460.476013 474.781982,462.647644 472.474182,464.150330 
	C462.721375,470.500641 452.950500,476.823120 443.809845,482.751373 
	C441.137482,482.629059 441.224152,480.215302 439.346313,480.041412 
	C437.347015,480.429626 436.377411,482.037170 436.437286,483.946136 
	C436.533325,487.010071 434.705688,488.351837 432.404266,489.622772 
	C427.369690,492.403107 422.395782,495.293243 417.572357,498.038788 
	C415.090515,495.837219 415.752594,493.528473 415.753693,491.464417 
	C415.772888,455.475037 415.851837,419.485657 415.890198,383.496277 
	C415.892426,381.395874 416.515656,378.903381 414.189270,377.620636 
	C411.891052,376.353455 409.667999,377.466278 407.575439,378.582733 
	C405.717499,379.573944 405.166534,381.014069 405.518127,383.149811 
	C405.893738,385.431427 405.928467,387.795227 405.872009,390.117279 
	C405.672272,398.331940 404.344086,399.724884 395.072876,401.133789 
	C395.453888,395.181427 392.518066,389.059937 397.749847,383.402802 
	C392.362610,384.692810 387.121338,385.815613 381.983002,389.042542 
	C388.082306,388.892426 387.843353,392.991943 387.980804,396.746124 
	C388.133820,400.924011 388.756622,405.371826 382.748352,406.286957 
	C381.690369,406.448120 380.676880,407.306366 379.777954,408.014282 
	C378.334534,409.151093 377.707703,410.766571 378.487427,412.457275 
	C379.345947,414.318878 380.998169,413.511932 382.427795,413.179138 
	C383.716644,412.879059 385.007294,412.586639 386.256012,412.300323 
	C390.068756,419.227722 388.467773,426.328430 382.511383,428.891541 
	C379.745758,430.081665 376.848724,431.372192 378.393036,434.953461 
	C379.832001,438.290527 382.619720,436.125061 384.896637,435.671722 
	C385.366302,435.578217 385.870544,435.658173 386.679474,435.658173 
	C387.838745,439.859497 387.278900,444.142029 387.131439,448.383698 
	C387.068909,450.183167 385.530518,450.709778 384.107178,451.291962 
	C382.415436,451.983887 380.752594,452.756165 379.117126,453.573486 
	C377.298737,454.482178 376.975616,456.106476 377.574371,457.827301 
	C378.184784,459.581665 379.668701,459.716492 381.296356,459.352844 
	C383.043121,458.962524 384.752350,458.117523 386.813141,458.804901 
	C387.779358,462.688812 387.358612,466.686432 387.160339,470.628876 
	C387.004303,473.731567 384.010651,473.560333 381.945068,474.372742 
	C379.994659,475.139832 377.485352,475.327637 377.762939,478.400879 
	C377.977142,480.772034 379.054962,482.020813 381.660980,481.770081 
	C383.268524,481.615387 384.851624,480.618713 386.733887,481.569794 
	C387.831726,485.359833 387.222015,489.351959 387.185272,493.304352 
	C387.168304,495.129150 385.768585,495.770142 384.291046,496.295654 
	C382.566986,496.908813 380.843384,497.532654 379.158569,498.244202 
	C377.239380,499.054657 377.031403,500.724823 377.461243,502.444031 
	C377.981262,504.523926 379.531677,504.815186 381.383606,504.303162 
	C382.976990,503.862610 384.549011,503.249298 386.243866,503.593323 
	C388.740692,510.573425 387.868683,512.873657 381.575165,516.112061 
	C368.998901,522.583374 355.876740,527.853638 343.019836,533.707336 
	C340.719757,534.754517 338.877808,534.780701 337.243927,532.788452 
	C333.875793,528.681519 328.639221,525.137756 333.078552,518.669373 
	C333.824005,517.583252 332.826355,516.414307 332.443329,515.365967 
	C331.549164,512.918396 331.332550,510.317505 332.078186,507.981445 
	C335.711029,496.600037 339.397186,485.197815 348.859192,476.222015 
	C352.534851,480.652802 356.273529,485.159546 360.854584,490.681702 
	C363.353821,483.887665 362.350372,478.110107 362.578430,471.987793 
M482.293518,296.382904 
	C489.819794,295.813690 497.406952,297.584747 505.206024,296.196289 
	C500.570435,290.081451 481.998718,286.479248 476.599457,290.451019 
	C474.215332,292.204803 474.777008,294.281647 477.143005,295.569183 
	C478.383575,296.244293 480.025055,296.182678 482.293518,296.382904 
M404.548523,358.025665 
	C401.682953,361.163147 400.825195,365.116394 399.137024,369.264038 
	C406.535767,369.769867 411.443481,366.174255 416.247650,362.733704 
	C418.793457,360.910492 418.246552,358.815643 415.191864,357.576965 
	C411.827545,356.212708 408.521606,355.468811 404.548523,358.025665 
M529.038696,290.053192 
	C525.622009,290.911469 522.200623,291.761810 519.490723,295.580597 
	C527.641663,296.519012 535.046753,296.734467 542.461304,296.366516 
	C544.269592,296.276794 546.259155,295.580841 546.175354,293.149628 
	C546.081848,290.437042 544.037903,290.130157 541.906372,290.107574 
	C537.913879,290.065338 533.921326,290.028290 529.038696,290.053192 
M506.577820,277.001373 
	C506.051697,278.017792 505.379150,278.986176 505.026978,280.059692 
	C503.989075,283.223511 504.553345,285.936432 507.574371,287.806580 
	C510.665894,289.720306 513.319946,288.689270 515.636047,286.436096 
	C518.076538,284.061890 519.483887,281.112244 517.056580,278.137329 
	C514.408569,274.891815 510.935394,273.879028 506.577820,277.001373 
M500.283966,250.845352 
	C500.479797,245.408783 500.295380,240.020706 498.871124,234.790710 
	C495.332275,239.994110 495.248749,253.231430 498.147247,256.852142 
	C500.508972,255.772171 499.709442,253.452576 500.283966,250.845352 
M393.908295,365.723145 
	C388.546997,363.254852 385.978180,366.688324 386.708221,375.700623 
	C389.918396,374.887787 393.186584,374.480438 395.746094,372.112671 
	C395.248596,370.115509 394.774994,368.214142 393.908295,365.723145 
M530.642700,301.686371 
	C532.572205,301.493256 534.501770,301.300140 536.431274,301.106995 
	C536.421387,300.935272 536.411560,300.763519 536.401672,300.591766 
	C523.595703,300.591766 510.789734,300.591766 497.983765,300.591766 
	C497.982056,300.980988 497.980347,301.370178 497.978668,301.759399 
	C508.587433,301.759399 519.196167,301.759399 530.642700,301.686371 
M489.843506,285.855927 
	C491.914520,285.764496 494.458862,286.473053 494.732513,283.180847 
	C494.875153,281.464539 494.723541,279.482666 492.753876,279.113495 
	C490.325745,278.658417 488.028015,279.868774 486.795502,281.891418 
	C485.530182,283.967896 486.939117,285.270294 489.843506,285.855927 
M496.366943,269.493347 
	C493.682312,266.867981 491.256531,268.361694 489.072174,270.165161 
	C488.128113,270.944641 488.156769,272.544006 489.326141,273.177307 
	C491.837830,274.537628 493.634308,272.633850 495.479980,271.338013 
	C495.856232,271.073792 496.053436,270.554596 496.366943,269.493347 
M439.368805,462.942780 
	C442.600769,460.650970 442.215271,458.348541 439.454956,455.710297 
	C436.489899,458.051361 436.176300,460.302704 439.368805,462.942780 
M437.492615,413.337677 
	C437.188812,415.171265 436.861053,417.319397 439.416199,417.442993 
	C441.189117,417.528778 441.736755,415.642883 441.393616,414.150116 
	C440.953674,412.236359 440.013000,410.553680 437.492615,413.337677 
M437.921204,389.598969 
	C437.105408,391.637115 436.965912,393.440033 439.553436,394.391388 
	C441.482666,393.269470 441.939941,391.665222 441.119202,389.762421 
	C440.561371,388.469177 439.532898,388.156952 437.921204,389.598969 
z"/>
<path fill="#000000" opacity="1.000000" stroke="none" 
	d="
M467.321869,506.366699 
	C449.440765,517.812256 431.856842,529.052490 414.282959,540.286255 
	C415.606049,543.396362 418.111359,543.077637 420.046143,543.536560 
	C429.868011,545.866028 430.194153,546.142151 432.200073,557.641357 
	C366.054993,560.816528 300.473114,568.254395 235.357132,579.737976 
	C235.227768,579.286499 235.098389,578.835083 234.969009,578.383606 
	C241.618164,575.582642 248.195068,572.593201 254.928970,570.013489 
	C283.532776,559.055847 312.521942,549.284790 341.849457,540.376160 
	C356.417358,535.950867 370.271881,529.060669 384.251923,522.842224 
	C409.103027,511.788269 432.611389,498.230499 455.693634,483.886383 
	C475.362305,471.663513 493.982513,458.029999 512.071533,442.984985 
	C518.498840,447.585114 524.996826,452.255127 531.293579,457.054260 
	C549.721436,471.099396 568.783508,484.141388 588.741028,495.875366 
	C602.934937,504.220642 617.427002,511.994232 632.413025,518.882935 
	C649.964294,526.950867 667.769653,534.388977 685.867432,541.089539 
	C694.397949,544.247864 703.334290,546.293640 712.024719,549.039856 
	C737.427490,557.067139 762.427673,566.198181 786.911255,576.718140 
	C787.923828,577.153198 789.178345,577.335327 789.809509,579.581970 
	C724.244263,569.359009 658.922363,560.494019 593.018005,558.167358 
	C592.970764,549.171265 594.886780,546.837219 602.142334,544.705872 
	C604.678223,543.961060 608.822205,544.706116 609.285889,541.407349 
	C609.751404,538.095947 605.573914,537.631714 603.331299,536.190552 
	C574.476013,517.647217 545.393066,499.438080 518.125305,478.562103 
	C514.199097,475.556213 511.622833,475.396393 507.418793,478.535034 
	C494.482330,488.192871 481.372345,497.655273 467.321869,506.366699 
z"/>
<path fill="#000000" opacity="1.000000" stroke="none" 
	d="
M766.740540,687.190247 
	C762.147400,687.858276 758.125793,686.254700 753.961975,686.250183 
	C751.321167,686.247314 750.923523,684.068054 750.269958,682.193726 
	C745.503845,668.523499 740.737915,654.853210 735.984253,641.178650 
	C735.333313,639.306213 734.864136,637.346802 732.930664,635.847595 
	C730.158203,638.230164 730.763123,641.723511 730.531555,644.549377 
	C729.635315,655.485596 728.762207,666.413757 727.302307,677.296143 
	C726.529175,683.059326 725.597229,683.923096 720.003479,682.934753 
	C709.190491,681.024292 708.934998,681.005676 709.750000,669.776184 
	C711.628113,643.899048 713.804321,618.043579 715.794373,592.174377 
	C716.108093,588.095642 717.827209,586.579102 721.978210,587.504517 
	C725.204041,588.223633 728.550354,588.548828 731.859314,588.703369 
	C734.646912,588.833618 735.569946,590.708679 736.292236,592.749512 
	C737.898804,597.288940 739.614380,601.819641 740.774597,606.481140 
	C743.157227,616.054077 747.771729,624.836304 750.323914,634.333740 
	C750.734985,635.863342 751.450500,637.432434 753.244751,637.148560 
	C755.252258,636.830872 755.552185,634.883850 755.580078,633.216797 
	C755.688660,626.721558 755.913086,620.247314 756.602173,613.772644 
	C757.234802,607.827820 757.489807,601.834167 757.687134,595.854675 
	C757.810425,592.118469 759.684143,591.287598 762.913940,591.974487 
	C764.210571,592.250305 765.518372,592.536377 766.835327,592.644714 
	C777.391846,593.512634 777.403137,593.501038 776.295471,604.156433 
	C773.770874,628.442322 771.052063,652.707275 769.100586,677.052734 
	C768.835815,680.354797 769.284912,684.042419 766.740540,687.190247 
z"/>
<path fill="#000000" opacity="1.000000" stroke="none" 
	d="
M434.239319,601.211609 
	C435.304199,623.443359 436.227997,645.214050 437.475403,666.966309 
	C437.760162,671.932312 436.034760,673.381287 431.290802,673.285767 
	C419.918121,673.056763 419.947174,673.203796 414.731049,662.208252 
	C409.809113,651.832886 404.838531,641.480164 399.811829,631.155273 
	C399.064880,629.621033 398.859192,627.492188 396.583618,627.122314 
	C394.877350,628.149963 395.362183,629.797485 395.456696,631.195557 
	C396.264374,643.144714 397.084076,655.093750 398.026276,667.032837 
	C398.621887,674.580139 398.279510,675.072876 390.879242,675.154663 
	C379.969818,675.275208 380.248322,675.259277 379.611420,664.135498 
	C378.186829,639.254028 376.422455,614.392212 374.872375,589.517639 
	C374.430511,582.427002 374.550079,582.419556 381.372406,581.613037 
	C393.207672,580.213928 393.099731,580.265259 398.080566,590.740112 
	C402.936798,600.952942 408.046997,611.044983 413.040405,621.192688 
	C413.622528,622.375671 414.131836,623.610535 415.791870,624.244019 
	C417.547607,621.395203 416.725281,618.380981 416.598724,615.573608 
	C416.119019,604.937744 415.504242,594.305786 414.747925,583.685974 
	C414.498688,580.186157 415.758606,578.815857 419.215912,578.881409 
	C422.372650,578.941345 425.567200,578.866394 428.688324,578.437622 
	C431.975464,577.985901 432.674042,579.595642 432.944397,582.353882 
	C433.544373,588.474426 432.729187,594.690063 434.239319,601.211609 
z"/>
<path fill="#000000" opacity="1.000000" stroke="none" 
	d="
M703.338867,609.131958 
	C704.496155,621.214600 701.825562,631.359863 692.250000,638.912415 
	C690.053650,640.644836 690.291199,642.794434 691.120117,645.224182 
	C694.767212,655.915344 698.292358,666.648193 701.843689,677.371887 
	C702.043884,677.976624 702.083374,678.634521 702.309326,679.886353 
	C695.315186,681.112915 688.672668,679.283020 682.031799,678.851624 
	C680.064514,678.723816 679.844788,676.125671 679.308960,674.425110 
	C676.761780,666.340149 674.296631,658.229431 671.772766,650.137085 
	C671.081848,647.921509 670.502686,645.143372 667.548889,645.393188 
	C664.149353,645.680725 664.436646,648.711853 664.313660,651.195984 
	C663.968079,658.172852 663.420959,665.148438 663.365601,672.127747 
	C663.331909,676.376404 661.612183,677.867676 657.593079,677.223633 
	C655.625916,676.908508 653.651733,676.549744 651.668091,676.439819 
	C640.790649,675.837097 642.507263,674.995605 643.061768,665.491089 
	C644.116394,647.413879 645.476318,629.354370 646.742676,611.289795 
	C647.346558,602.675354 648.051575,594.068054 648.653503,585.453491 
	C648.794495,583.435791 649.211121,581.555786 651.658691,581.793579 
	C664.294556,583.020813 677.296326,581.187073 689.375732,587.055603 
	C698.581726,591.528198 703.415039,598.392822 703.338867,609.131958 
M675.330688,601.199280 
	C670.111450,599.828430 667.916382,600.706848 667.507141,604.767395 
	C666.941772,610.377319 666.508972,616.019287 666.425720,621.653564 
	C666.347351,626.954712 669.643250,628.919189 674.757202,627.140137 
	C679.825378,625.376831 681.422302,621.211304 681.545288,616.558716 
	C681.694336,610.914856 682.865295,604.623718 675.330688,601.199280 
z"/>
<path fill="#000000" opacity="1.000000" stroke="none" 
	d="
M567.676025,633.533447 
	C567.227356,645.142334 566.717712,656.286194 566.565674,667.434875 
	C566.522095,670.627686 565.365295,671.540039 562.463989,671.422791 
	C558.803101,671.274780 555.131592,671.240051 551.468933,671.331116 
	C548.093262,671.415039 546.676575,670.009277 546.738464,666.567383 
	C546.891235,658.072388 546.878967,649.573425 546.840637,641.076477 
	C546.811890,634.711609 545.254150,633.235168 538.779175,633.090881 
	C532.253906,632.945496 530.554199,634.340820 530.429016,640.700195 
	C530.261780,649.195068 530.218689,657.699158 530.426331,666.191772 
	C530.523010,670.143433 529.060669,671.632690 525.183289,671.355530 
	C522.032593,671.130371 518.839233,671.078308 515.693176,671.320068 
	C511.611389,671.633667 510.527313,669.756042 510.639984,666.001404 
	C511.149231,649.029541 510.630737,632.051270 511.048523,615.063171 
	C511.321259,603.970581 511.171051,592.764038 510.741119,581.621155 
	C510.577271,577.374573 511.345581,575.229614 516.314331,576.570374 
	C518.800110,577.241150 521.613281,576.706177 524.278381,576.703308 
	C531.045227,576.696106 531.028259,576.709839 531.062622,583.253906 
	C531.104553,591.251709 531.143311,599.250549 531.311951,607.246277 
	C531.437256,613.188721 532.800781,614.152344 540.201538,614.010742 
	C546.789001,613.884583 547.626160,613.115845 547.651062,606.971375 
	C547.685547,598.473267 547.794067,589.973083 547.642334,581.477844 
	C547.575195,577.719971 549.039368,576.297791 552.709412,576.798218 
	C555.347778,577.157959 558.011536,577.497864 560.667786,577.530029 
	C568.369629,577.623230 568.559082,576.350830 568.391968,586.104126 
	C568.123718,601.759033 568.844421,617.427307 567.676025,633.533447 
z"/>
<path fill="#000000" opacity="1.000000" stroke="none" 
	d="
M308.648865,649.143799 
	C307.681244,634.976624 305.570892,621.341492 307.480072,607.479004 
	C309.866669,590.150391 322.348694,582.998230 338.164124,583.469788 
	C353.487732,583.926758 361.467438,590.135864 365.087372,605.354309 
	C369.125702,622.331848 371.066833,639.698975 367.414337,657.163513 
	C364.387665,671.635742 355.646332,679.423950 341.446198,680.299011 
	C325.672028,681.271118 315.525604,674.737549 310.871277,660.313293 
	C309.757629,656.862000 309.385742,653.171387 308.648865,649.143799 
M329.297760,646.257080 
	C329.227051,650.322632 330.189911,654.185608 331.746918,657.894226 
	C333.353516,661.721130 336.365234,663.541626 340.467468,663.147949 
	C344.458313,662.764893 346.611542,660.100342 347.621765,656.458862 
	C348.515747,653.236694 348.879364,649.925964 348.653992,646.575073 
	C347.973175,636.452393 347.368500,626.323242 346.531189,616.213379 
	C346.286713,613.261230 345.660950,610.260132 344.675659,607.470154 
	C343.430237,603.943481 340.746155,601.449341 336.860809,601.488831 
	C332.856903,601.529663 330.042603,603.890503 328.571350,607.646973 
	C327.588806,610.155701 327.169891,612.788025 327.342377,615.485840 
	C327.978577,625.434753 328.634735,635.382385 329.297760,646.257080 
z"/>
<path fill="#000000" opacity="1.000000" stroke="none" 
	d="
M630.934448,660.711060 
	C622.327148,673.789551 611.324219,677.762512 596.720886,673.334778 
	C583.868713,669.438049 576.712830,658.952820 576.608215,644.544250 
	C576.501709,629.881348 577.014038,615.304260 579.543274,600.809143 
	C581.877319,587.432556 590.377563,578.678406 602.596863,577.725830 
	C619.430054,576.413635 629.989380,582.909302 634.323059,597.121826 
	C637.792419,608.499390 637.374634,620.147278 636.804382,631.788025 
	C636.324768,641.580566 635.908936,651.428955 630.934448,660.711060 
M597.602783,621.997742 
	C597.013428,630.472107 596.784424,638.966187 597.272339,647.438477 
	C597.601501,653.154968 601.233887,656.834961 606.150269,657.315674 
	C609.839539,657.676392 613.912842,653.989929 614.748779,648.504089 
	C616.932373,634.174316 617.396790,619.722412 616.599670,605.256348 
	C616.295471,599.736572 612.304565,595.570435 607.801208,595.380920 
	C603.573975,595.203064 600.664978,598.352722 599.231384,604.197815 
	C597.866089,609.764282 598.641541,615.484070 597.602783,621.997742 
z"/>
<path fill="#000000" opacity="1.000000" stroke="none" 
	d="
M443.968353,632.846985 
	C443.832794,621.560364 443.394775,610.817749 445.504669,600.029968 
	C447.807617,588.255432 453.875916,580.360474 465.253632,576.587463 
	C471.720795,574.442871 478.366394,573.870239 484.946838,575.551208 
	C493.139740,577.644104 498.922180,583.018799 495.172180,595.284058 
	C491.728577,594.461914 488.289459,593.414856 484.773071,592.842468 
	C472.943298,590.916809 465.473022,597.414368 465.290405,609.462524 
	C465.118835,620.784119 464.921234,632.089233 466.295166,643.375122 
	C467.229004,651.045837 471.280823,655.473206 477.325226,654.930237 
	C480.243103,654.668091 482.027191,653.410583 482.026764,650.280334 
	C482.026306,646.782288 481.978241,643.283813 482.018402,639.786316 
	C482.058716,636.274658 480.592133,633.903259 476.951935,633.625244 
	C473.901672,633.392212 472.987000,631.737610 473.018036,629.040894 
	C473.031433,627.876282 473.029877,626.701904 472.900970,625.546936 
	C472.360046,620.700745 473.991821,618.019226 479.370605,618.155273 
	C484.524780,618.285767 489.691681,617.972839 494.851410,617.805664 
	C498.557373,617.685669 500.323975,619.228882 500.298401,623.127808 
	C500.208832,636.788574 500.262085,650.450500 500.323547,664.111694 
	C500.333344,666.289978 499.748383,667.813599 497.749084,669.040283 
	C485.634430,676.473511 463.550049,674.344055 453.854675,664.455933 
	C448.285797,658.776367 445.916107,651.463379 444.739563,643.786682 
	C444.211731,640.342834 444.217072,636.817139 443.968353,632.846985 
z"/>
<path fill="#000000" opacity="1.000000" stroke="none" 
	d="
M271.665894,595.166992 
	C272.575958,604.811707 273.383728,614.070618 274.295349,623.319336 
	C275.533264,635.878113 277.018463,648.415344 278.045074,660.990601 
	C278.416443,665.539124 280.899078,666.485107 284.627686,666.549805 
	C290.313293,666.648438 295.719635,664.599792 301.445770,664.600647 
	C305.730896,664.601257 307.430847,665.796387 307.327759,670.247253 
	C306.990143,684.825317 309.552032,681.482849 295.611847,683.023621 
	C285.055267,684.190369 274.453430,685.217346 263.859497,686.175781 
	C260.200806,686.506775 258.999237,685.125610 258.667450,681.473877 
	C256.199799,654.311340 253.555099,627.164551 250.847504,600.024597 
	C250.440704,595.946960 251.298630,593.738220 255.948227,593.653381 
	C259.914062,593.580933 263.887512,592.850281 267.815125,592.166626 
	C270.151703,591.759827 271.327606,592.474548 271.665894,595.166992 
z"/>
<path fill="#000000" opacity="1.000000" stroke="none" 
	d="
M505.960999,399.603607 
	C506.809143,392.058197 506.052032,384.933716 506.082062,377.815491 
	C506.095551,374.611572 507.256348,372.796967 510.697998,372.726990 
	C514.156311,372.656677 516.077393,374.069580 516.078491,377.659302 
	C516.080933,385.279755 517.439209,393.244568 515.633484,400.411011 
	C514.206482,406.074341 516.879333,410.676239 516.264954,415.854004 
	C515.812805,419.664734 514.515259,421.974945 510.688599,421.995728 
	C506.671722,422.017487 506.120270,419.087769 505.964142,415.780212 
	C505.716156,410.526123 507.520782,405.280060 505.960999,399.603607 
z"/>
<path fill="#000000" opacity="1.000000" stroke="none" 
	d="
M520.106140,543.367432 
	C514.902039,544.040649 513.640381,541.727295 513.670044,537.320862 
	C513.748291,525.678589 514.153259,525.246521 526.021423,525.641907 
	C530.113831,525.778259 532.074402,527.214050 532.060974,531.566162 
	C532.017273,545.710144 533.313660,543.135498 520.106140,543.367432 
z"/>
<path fill="#000000" opacity="1.000000" stroke="none" 
	d="
M501.976105,505.684387 
	C510.290649,505.655273 510.292145,505.655273 510.277344,513.596436 
	C510.274567,515.086121 510.281586,516.576721 510.232422,518.065186 
	C510.205231,518.887878 510.365753,519.932007 509.938324,520.492432 
	C506.265198,525.308960 501.128204,522.342834 496.649292,522.740723 
	C493.944550,522.981079 491.796753,521.690247 491.924225,518.373047 
	C491.962280,517.382629 491.875916,516.387939 491.862671,515.395020 
	C491.731384,505.554596 491.732361,505.554596 501.976105,505.684387 
z"/>
<path fill="#000000" opacity="1.000000" stroke="none" 
	d="
M516.078979,343.529480 
	C516.061279,346.112854 516.052856,348.272552 515.955750,350.428253 
	C515.792847,354.043854 513.011414,354.591064 510.332855,354.778198 
	C507.493835,354.976501 505.933411,353.128418 506.000153,350.443726 
	C506.103729,346.277161 504.675262,341.687805 508.827942,338.268616 
	C504.449738,334.262970 505.931183,329.166901 506.438873,324.357391 
	C506.722992,321.665741 509.235931,321.941315 511.204437,322.010010 
	C513.209290,322.080017 515.528503,322.168762 515.716064,324.855896 
	C516.033569,329.404541 517.451416,334.165344 513.769409,338.067108 
	C514.499817,339.902130 516.160950,341.116364 516.078979,343.529480 
z"/>
<path fill="#000000" opacity="1.000000" stroke="none" 
	d="
M522.730286,328.986938 
	C522.890686,322.445709 524.876648,320.572998 529.483459,322.163422 
	C530.603699,322.550140 531.920044,322.970795 531.971497,324.303986 
	C532.152954,329.002655 533.660461,333.894867 530.184143,338.292969 
	C533.758972,342.217285 532.257690,347.026245 532.114319,351.529053 
	C532.016418,354.605530 529.055420,354.720764 526.800781,354.879211 
	C524.301697,355.054779 522.705627,353.730927 522.559937,351.050903 
	C522.532837,350.552429 522.480652,350.050568 522.510132,349.554443 
	C522.908752,342.855255 523.488647,336.158630 522.730286,328.986938 
z"/>
<path fill="#000000" opacity="1.000000" stroke="none" 
	d="
M523.533630,386.803192 
	C522.810425,381.958771 521.451111,377.327087 524.109619,373.030029 
	C524.953979,371.665222 523.700256,371.399902 523.336426,370.618011 
	C521.464661,366.595551 522.538147,362.409729 523.088318,358.362946 
	C523.377197,356.238556 525.766907,356.043121 527.613525,356.306396 
	C529.487183,356.573578 532.157837,356.456482 532.080994,359.232452 
	C531.970032,363.240906 533.845764,367.553833 530.758911,371.202850 
	C529.695068,372.460388 530.997620,372.805481 531.351196,373.595978 
	C533.129822,377.572296 533.037292,382.021149 531.824463,385.773376 
	C530.633606,389.457550 526.885803,388.801392 523.533630,386.803192 
z"/>
<path fill="#000000" opacity="1.000000" stroke="none" 
	d="
M498.939514,384.365051 
	C496.653351,389.818451 499.864655,394.732941 499.197815,399.820282 
	C498.680725,403.765259 496.957977,405.094208 493.322388,404.591522 
	C491.052948,404.277771 489.637268,403.088837 489.749359,400.621460 
	C489.906372,397.165741 489.679565,393.753387 490.318176,390.239624 
	C490.998718,386.494873 489.376831,382.573608 489.632812,378.619659 
	C489.827972,375.604340 489.702606,372.903290 493.928589,372.911163 
	C498.187225,372.919067 499.450928,375.151642 499.163361,378.951691 
	C499.037781,380.610992 499.036407,382.279724 498.939514,384.365051 
z"/>
<path fill="#000000" opacity="1.000000" stroke="none" 
	d="
M514.564819,506.527435 
	C519.162903,505.151886 523.476746,505.838135 527.768738,505.881989 
	C530.204773,505.906891 531.296204,507.409790 531.352295,509.757629 
	C531.431213,513.065735 531.485291,516.374756 531.606995,519.681274 
	C531.661865,521.171265 531.408569,522.392090 529.629578,522.492493 
	C528.057373,522.581238 527.208801,521.750488 526.914001,520.200256 
	C526.589233,518.492554 527.629333,516.526733 525.549561,514.625061 
	C523.140076,518.382812 520.050781,521.264282 514.761353,521.790649 
	C513.384399,516.893372 513.356689,511.917084 514.564819,506.527435 
z"/>
<path fill="#000000" opacity="1.000000" stroke="none" 
	d="
M507.511658,526.582092 
	C510.515900,529.937622 510.463379,537.696716 507.753906,540.403992 
	C505.502991,542.652954 503.077667,541.312500 500.791931,540.480957 
	C499.922913,540.164795 498.932434,539.402588 498.576721,538.590088 
	C497.013428,535.019043 492.471619,531.882263 493.930267,528.161194 
	C495.158752,525.027222 499.970734,527.252563 503.144531,526.712097 
	C504.444275,526.490723 505.792664,526.554932 507.511658,526.582092 
z"/>
<path fill="#000000" opacity="1.000000" stroke="none" 
	d="
M398.380951,430.505920 
	C400.616364,429.814331 402.234192,428.379730 404.345886,428.729675 
	C408.260590,440.476501 405.752350,445.654724 395.381622,446.634491 
	C394.091095,442.328400 394.796600,437.898132 394.943939,433.522400 
	C395.003571,431.750977 396.606903,431.208832 398.380951,430.505920 
z"/>
<path fill="#000000" opacity="1.000000" stroke="none" 
	d="
M405.380615,413.206116 
	C405.292053,421.834839 404.619751,422.576202 396.226746,423.742767 
	C391.573395,414.244629 394.635040,407.536102 404.746735,405.648468 
	C406.017273,407.893311 405.113678,410.405121 405.380615,413.206116 
z"/>
<path fill="#000000" opacity="1.000000" stroke="none" 
	d="
M395.110107,455.783447 
	C397.941071,453.311035 401.057129,452.425446 404.617401,451.702240 
	C405.901154,456.304169 405.945312,460.945221 405.136749,465.089264 
	C404.312683,469.312927 399.213531,467.976471 395.824646,469.710632 
	C394.117462,464.997040 394.937103,460.556000 395.110107,455.783447 
z"/>
<path fill="#000000" opacity="1.000000" stroke="none" 
	d="
M405.376953,479.660522 
	C405.400665,480.726654 405.428223,481.393005 405.435272,482.059540 
	C405.519135,490.003479 404.628571,490.939484 396.130066,491.850037 
	C391.800446,482.170319 394.608521,476.274445 404.380127,474.636749 
	C405.920624,475.901184 405.139465,477.695953 405.376953,479.660522 
z"/>
<path fill="#000000" opacity="1.000000" stroke="none" 
	d="
M505.892700,363.073517 
	C506.045532,359.682373 505.468689,356.261536 510.073822,356.237854 
	C514.770508,356.213684 516.726746,358.698822 516.090332,363.183624 
	C515.689453,366.008331 517.887085,369.763275 513.454041,371.291931 
	C508.178162,373.111267 505.908691,370.780060 505.892700,363.073517 
z"/>
<path fill="#000000" opacity="1.000000" stroke="none" 
	d="
M506.020020,433.949097 
	C506.156769,431.726532 506.449280,429.916809 506.436096,428.109375 
	C506.416565,425.435120 507.155243,423.398254 510.216339,423.509766 
	C513.147888,423.616547 515.627075,424.254730 516.000977,428.120941 
	C516.734558,435.705841 515.682190,437.620117 510.188568,437.915588 
	C507.441010,438.063354 506.162537,437.020721 506.020020,433.949097 
z"/>
<path fill="#000000" opacity="1.000000" stroke="none" 
	d="
M499.149170,346.980896 
	C499.291931,351.197662 498.982971,354.546844 493.820709,354.179901 
	C487.764832,353.749420 490.029297,349.138916 489.729767,345.955292 
	C489.413971,342.598999 489.261322,339.029022 494.306213,339.151459 
	C499.456635,339.276428 499.214874,342.965515 499.149170,346.980896 
z"/>
<path fill="#000000" opacity="1.000000" stroke="none" 
	d="
M489.716370,412.193176 
	C489.398956,408.326263 490.728485,406.287689 494.370392,406.354279 
	C497.986176,406.420349 499.220215,408.581573 499.057251,411.908997 
	C498.992737,413.226685 498.959595,414.553619 499.037292,415.868988 
	C499.239288,419.288849 498.531799,421.586029 494.265991,421.500885 
	C489.955414,421.414917 489.487152,418.932465 489.692993,415.618591 
	C489.754303,414.631866 489.707733,413.638428 489.716370,412.193176 
z"/>
<path fill="#000000" opacity="1.000000" stroke="none" 
	d="
M489.688660,432.770386 
	C490.169067,428.792938 487.793030,423.392761 494.532898,423.714203 
	C501.116058,424.028198 498.375916,429.422607 498.841919,432.885071 
	C499.211700,435.632690 498.900543,438.635010 495.158844,438.615448 
	C491.919952,438.598511 489.253479,437.302368 489.688660,432.770386 
z"/>
<path fill="#000000" opacity="1.000000" stroke="none" 
	d="
M496.707153,356.898438 
	C500.885620,360.402710 498.887024,364.664001 498.701355,368.574982 
	C498.592163,370.874359 496.318939,371.030975 494.505219,371.274841 
	C491.520630,371.676147 489.609344,370.697601 489.660889,367.325867 
	C489.683716,365.831909 489.645386,364.337036 489.667603,362.843048 
	C489.760437,356.597290 489.788605,356.575775 496.707153,356.898438 
z"/>
<path fill="#000000" opacity="1.000000" stroke="none" 
	d="
M522.894287,427.301147 
	C523.638794,422.889526 526.652710,423.817596 529.205505,423.972961 
	C532.260010,424.158844 532.288086,426.455566 532.232849,428.700165 
	C532.175659,431.021332 532.469482,433.449921 531.878052,435.633362 
	C531.185669,438.189880 528.549194,438.021118 526.441711,438.009705 
	C524.420410,437.998810 522.889771,437.035156 522.843872,434.730194 
	C522.797607,432.405334 522.850586,430.078552 522.894287,427.301147 
z"/>
<path fill="#000000" opacity="1.000000" stroke="none" 
	d="
M401.469452,506.323792 
	C399.597870,507.384521 398.377533,508.953278 396.297180,508.612396 
	C392.997498,502.101166 394.567932,499.755341 403.831787,497.916107 
	C405.076569,501.154114 406.713867,504.297821 401.469452,506.323792 
z"/>
<path fill="#000000" opacity="1.000000" stroke="none" 
	d="
M492.770264,449.829346 
	C488.375153,451.131744 489.944244,447.855530 489.726501,446.226257 
	C489.327332,443.239166 489.712250,440.556366 493.618195,440.152679 
	C495.722839,439.935150 497.803833,439.942810 498.640015,442.202881 
	C499.508911,444.551331 498.655731,446.505249 496.101776,447.232269 
	C494.703674,447.630249 493.815796,448.476196 492.770264,449.829346 
z"/>
</svg>