<svg class="svg-icon" style="width: 1em; height: 1em;vertical-align: middle;fill: currentColor;overflow: hidden;" viewBox="0 0 1024 1024" version="1.1" xmlns="http://www.w3.org/2000/svg"><path d="M510.995 903c-52.771 0-103.979-10.342-152.204-30.739-46.562-19.694-88.375-47.883-124.274-83.781-35.898-35.899-64.087-77.712-83.782-124.274-20.396-48.224-30.739-99.433-30.739-152.204 0-52.77 10.342-103.978 30.739-152.203 19.695-46.563 47.884-88.376 83.783-124.275 35.9-35.899 77.712-64.088 124.276-83.783 48.22-20.397 99.433-30.741 152.2-30.741h0.003c52.772 0 103.98 10.343 152.203 30.739 46.563 19.695 88.376 47.883 124.274 83.782s64.087 77.711 83.781 124.274c20.397 48.224 30.739 99.433 30.739 152.204 0 72.71-19.978 143.296-57.872 204.808a7022.3 7022.3 0 0 1 1.523 3.647c13.83 33.124 36.979 88.563 53.768 120.668 7.847 15.003 5.576 32.812-5.783 45.367-11.36 12.555-28.854 16.593-44.563 10.282-26.897-10.801-77.608-25.178-114.636-35.675-12.28-3.481-22.696-6.435-30.721-8.818C645.159 885.491 578.723 903 510.995 903z m0.002-722c-88.412 0-171.533 34.431-234.053 96.949-62.519 62.519-96.949 145.641-96.949 234.052 0 88.413 34.431 171.534 96.948 234.052S422.582 843 510.995 843c59.779 0 118.35-16.099 169.379-46.556 10.022-5.983 22.175-7.386 33.337-3.843 7.571 2.403 21.249 6.281 37.086 10.771 22.447 6.364 49.752 14.105 74.521 21.836-12.916-28.651-25.94-59.844-35.039-81.635-1.949-4.667-3.732-8.938-5.313-12.703-5.273-12.555-3.988-26.845 3.438-38.224 35.06-53.721 53.592-116.187 53.592-180.646 0-88.413-34.43-171.534-96.947-234.052C682.531 215.431 599.41 181 510.997 181z"  /><path d="M472.091 648.424a30.003 30.003 0 0 1-20.791-8.373L326.811 520.368c-11.943-11.483-12.317-30.475-0.835-42.419 11.482-11.943 30.474-12.317 42.419-0.835L471.24 575.99l183.514-191.188c11.474-11.954 30.466-12.343 42.418-0.869 11.953 11.474 12.342 30.465 0.869 42.418L493.736 639.199a30.003 30.003 0 0 1-21.645 9.225z"  /></svg>